<svg width="42" height="42" viewBox="0 0 42 42" fill="none" xmlns="http://www.w3.org/2000/svg">
<style>
  @keyframes draw-path {
    0% {
      stroke-dashoffset: 240;
      fill-opacity: 0;
    }
    50% {
      stroke-dashoffset: 0;
      fill-opacity: 0;
    }
    100% {
      stroke-dashoffset: 0;
      fill-opacity: 1;
    }
  }
  @keyframes bg-pulse {
    0%, 100% {
      fill: #FF6E50;
    }
    50% {
      fill: #ff856c;
    }
  }
  .bg-card {
    animation: bg-pulse 6s ease-in-out infinite;
  }
  .glyph-right {
    stroke: #131316;
    stroke-width: 0.3;
    stroke-dasharray: 240;
    stroke-dashoffset: 240;
    fill-opacity: 0;
    animation: draw-path 2s cubic-bezier(0.16, 1, 0.3, 1) 0.3s forwards;
  }
  .glyph-left {
    stroke: #131316;
    stroke-width: 0.3;
    stroke-dasharray: 240;
    stroke-dashoffset: 240;
    fill-opacity: 0;
    animation: draw-path 2s cubic-bezier(0.16, 1, 0.3, 1) forwards;
  }
</style>
<rect class="bg-card" width="42" height="42" rx="8" fill="#FF6E50"/>
<path class="glyph-right" d="M19.9152 34.9523C19.7386 34.9042 19.616 34.743 19.616 34.559L19.616 22.9266C19.616 22.7016 19.7973 22.5192 20.021 22.5192H22.4509C22.6745 22.5192 22.8559 22.7016 22.8559 22.9266V28.5167C22.8559 28.8954 23.3245 29.0692 23.5689 28.7812L29.2786 22.0511C29.3556 21.9604 29.4681 21.9082 29.5867 21.9082H32.3914C32.7212 21.9082 32.9127 22.2834 32.7205 22.553L23.3987 35.6264C23.3003 35.7645 23.1269 35.8266 22.9638 35.7822L19.9152 34.9523Z" fill="#131316"/>
<path class="glyph-right" d="M32.3914 21.7044C32.8861 21.7044 33.1734 22.2674 32.8851 22.6717L23.5633 35.7452C23.4156 35.9523 23.1555 36.0453 22.9109 35.9787L19.8624 35.1488C19.5975 35.0767 19.4136 34.835 19.4136 34.559L19.4135 22.9266C19.4136 22.5891 19.6855 22.3156 20.0209 22.3156L22.4508 22.3154C22.7863 22.3154 23.0584 22.5892 23.0584 22.9267L23.0584 28.5168C23.0584 28.7061 23.2927 28.7929 23.4148 28.6489L29.1245 21.9188C29.2399 21.7828 29.409 21.7044 29.5868 21.7044L32.3914 21.7044ZM32.7205 22.553C32.9127 22.2834 32.7212 21.9082 32.3914 21.9082H29.5867L29.5425 21.9106C29.4405 21.9218 29.3459 21.9718 29.2786 22.0511L23.5689 28.7812L23.5454 28.8068C23.3038 29.05 22.8842 28.8944 22.8573 28.5517L22.8559 28.5167V22.9266C22.8559 22.7016 22.6745 22.5192 22.4509 22.5192H20.021L19.9797 22.5213C19.7754 22.5421 19.616 22.7157 19.616 22.9266L19.616 34.559C19.616 34.743 19.7386 34.9042 19.9152 34.9523L22.9638 35.7822C23.1167 35.8238 23.2786 35.7717 23.3793 35.6513L23.3987 35.6264L32.7205 22.553Z" fill="#131316"/>
<path class="glyph-left" d="M9.60841 23.0191C9.29717 23.0191 9.10226 22.6806 9.25711 22.4091L18.3802 6.40847C18.4687 6.25331 18.6475 6.17435 18.8209 6.21381L22.5402 7.05996C22.7248 7.10196 22.8558 7.26694 22.8558 7.4573L22.8558 26.2342C22.8558 26.4011 22.7546 26.5511 22.6004 26.6128L20.1705 27.584C19.9046 27.6903 19.616 27.4933 19.616 27.2054V21.8042C19.616 21.5764 19.4303 21.3929 19.2039 21.3969L14.6125 21.4775C14.5256 21.4791 14.4415 21.5087 14.3727 21.562L12.5986 22.9346C12.5278 22.9894 12.441 23.0191 12.3516 23.0191H9.60841ZM19.5311 12.8761C19.5365 12.4416 18.9523 12.3017 18.7624 12.692L16.3969 17.5548C16.2653 17.8255 16.4612 18.1413 16.7607 18.1413L19.0665 18.1413C19.2882 18.1413 19.4687 17.9619 19.4714 17.7389L19.5311 12.8761Z" fill="#131316"/>
<path class="glyph-left" d="M22.5849 6.86127C22.8618 6.92426 23.0583 7.17181 23.0583 7.45734L23.0583 26.2341C23.0583 26.4845 22.9065 26.7096 22.6753 26.802L20.2453 27.7733C19.8464 27.9327 19.4135 27.6371 19.4135 27.2054L19.4135 21.8041C19.4135 21.6903 19.3207 21.5986 19.2075 21.6006L14.6161 21.6812C14.5726 21.6819 14.5305 21.6968 14.4961 21.7234L12.722 23.0961C12.6158 23.1782 12.4856 23.2228 12.3517 23.2228L9.60842 23.2227C9.1416 23.2227 8.84918 22.7152 9.08136 22.3078L18.2045 6.30706C18.3372 6.07434 18.6054 5.95592 18.8655 6.01509L22.5849 6.86127ZM18.8209 6.21381C18.6475 6.17435 18.4687 6.25331 18.3802 6.40847L9.25711 22.4091L9.24367 22.4347C9.11461 22.7015 9.3069 23.0191 9.60841 23.0191H12.3516C12.441 23.0191 12.5278 22.9894 12.5986 22.9346L14.3727 21.562C14.433 21.5153 14.5049 21.4868 14.5801 21.4794L14.6125 21.4775L19.2039 21.3969C19.4303 21.3929 19.616 21.5764 19.616 21.8042V27.2054C19.616 27.4842 19.8868 27.6779 20.1454 27.5932L20.1705 27.584L22.6004 26.6128C22.7546 26.5511 22.8558 26.4011 22.8558 26.2342L22.8558 7.4573C22.8558 7.26694 22.7248 7.10196 22.5402 7.05996L18.8209 6.21381ZM18.7624 12.692C18.9523 12.3017 19.5365 12.4416 19.5311 12.8761L19.4714 17.7389C19.4687 17.9619 19.2882 18.1413 19.0665 18.1413L16.7607 18.1413L16.7329 18.1404C16.4492 18.1216 16.2694 17.817 16.3969 17.5548L18.7624 12.692ZM19.3286 12.8735C19.3312 12.6563 19.0392 12.5864 18.9443 12.7815L16.5788 17.6444C16.513 17.7797 16.611 17.9376 16.7607 17.9377L19.0665 17.9376C19.1773 17.9376 19.2675 17.8479 19.2689 17.7364L19.3286 12.8735Z" fill="#131316"/>
</svg>
